<svg id="Capa_1" enable-background="new 0 0 512 512" height="512" viewBox="0 0 512 512" width="512" xmlns="http://www.w3.org/2000/svg"><g><path d="m354.565 281.388c4.143 0 7.5-3.357 7.5-7.5s-3.357-7.5-7.5-7.5h-197.13c-4.143 0-7.5 3.357-7.5 7.5s3.357 7.5 7.5 7.5z"/><path d="m390.426 217.466h-6.426v-34.758c0-4.143-3.357-7.5-7.5-7.5s-7.5 3.357-7.5 7.5v34.758h-20v-174.966c0-4.143-3.357-7.5-7.5-7.5h-102.972c-4.143 0-7.5 3.357-7.5 7.5s3.357 7.5 7.5 7.5h95.472v167.466h-156v-167.466h30.541c4.143 0 7.5-3.357 7.5-7.5s-3.357-7.5-7.5-7.5h-38.041c-4.143 0-7.5 3.357-7.5 7.5v174.966h-20v-184.863c0-9.707 7.896-17.603 17.603-17.603h190.795c9.706 0 17.602 7.896 17.602 17.603v120.118c0 4.143 3.357 7.5 7.5 7.5s7.5-3.357 7.5-7.5v-120.118c0-17.978-14.625-32.603-32.602-32.603h-190.795c-17.978 0-32.603 14.625-32.603 32.603v184.863h-6.426c-10.671 0-19.352 8.681-19.352 19.351v161.21c0 25.501 8.24 49.617 23.83 69.739 2.536 3.274 7.248 3.872 10.521 1.336 3.275-2.536 3.873-7.247 1.336-10.522-13.534-17.469-20.688-38.408-20.688-60.553v-161.21c0-2.399 1.952-4.351 4.352-4.351h268.853c2.399 0 4.352 1.951 4.352 4.351v161.21c0 54.574-44.399 98.974-98.974 98.974h-79.608c-21.119 0-41.273-6.564-58.286-18.983-3.347-2.443-8.038-1.711-10.479 1.636-2.442 3.346-1.71 8.037 1.636 10.479 19.596 14.305 42.809 21.867 67.129 21.867h79.608c62.846 0 113.974-51.128 113.974-113.974v-161.21c0-10.67-8.681-19.35-19.352-19.35z"/></g></svg>